<mxfile host="app.diagrams.net" modified="2024-01-29T05:37:33.597Z" agent="Mozilla/5.0 (Windows NT 10.0; Win64; x64) AppleWebKit/537.36 (KHTML, like Gecko) Chrome/120.0.0.0 Safari/537.36" version="23.0.0" etag="1I_2yAOF04B1lpZoC3ZY" type="github">
  <diagram name="Page-1" id="gH0T_2vq7ybJfGIB3EtT">
    <mxGraphModel>
      <root>
        <mxCell id="0" />
        <mxCell id="1" parent="0" />
      </root>
    </mxGraphModel>
  </diagram>
</mxfile>
